<svg xmlns="http://www.w3.org/2000/svg" viewBox="0 0 1024 1024" fill="currentColor"><path d="M332.31 299.43c23.5-5.82 48.82 10.69 51.29 34.87.94 116.54.12 233.14.41 349.71-.11 16.19-9.82 33.16-25.7 38.43-24.57 10.19-56.88-4.62-59.27-32.46-.1-118.33-.01-236.66-.04-355 1.46-18.04 15.51-32.93 33.31-35.55m343 0c35.1-7.96 65.43 37.93 41.66 66.55-47.57 49.23-97.49 96.92-144.94 146.04 46.29 47.48 94.27 94.45 141.22 141.72 16.9 16.03 15.43 46.56-3.03 60.51-14.81 15.25-41.91 14.1-56.49-1-56.97-57.02-113.99-113.99-170.97-171-17.12-14.39-18.12-43.05-2.01-58.52 57.02-56.97 113.99-113.99 171-170.97 6.06-6.89 14.6-11.53 23.56-13.33"/></svg>